<?xml version="1.0" encoding="UTF-8"?>
<svg id="Layer_1" data-name="Layer 1" xmlns="http://www.w3.org/2000/svg" xmlns:xlink="http://www.w3.org/1999/xlink" viewBox="0 0 405.63 348.18">
  <defs>
    <style>
      .cls-1 {
        fill: url(#linear-gradient-4);
      }

      .cls-2 {
        fill: url(#linear-gradient-3);
      }

      .cls-3 {
        fill: url(#linear-gradient-2);
      }

      .cls-4 {
        fill: url(#linear-gradient);
      }

      /* ☀️ PADRÃO: Modo Claro (Onde a aba é branca, as letras ficam escuras para dar contraste) */
      .cls-5 {
        fill: #050505;
        transition: fill 0.3s ease;
      }

      /* 🌙 ATIVAÇÃO: Modo Escuro (Se o sistema mudar para dark, as letras passam a branco puro) */
      @media (prefers-color-scheme: dark) {
        .cls-5 {
          fill: #ffffff;
        }
      }
    </style>
    <linearGradient id="linear-gradient" x1="0" y1="181.73" x2="365.35" y2="181.73" gradientUnits="userSpaceOnUse">
      <stop offset=".13" stop-color="#ff00c1"/>
      <stop offset=".39" stop-color="#9600ff"/>
      <stop offset=".62" stop-color="#4900ff"/>
      <stop offset=".89" stop-color="#00fff9"/>
    </linearGradient>
    <linearGradient id="linear-gradient-2" x1="18.38" y1="215.17" x2="401.99" y2="215.17" xlink:href="#linear-gradient"/>
    <linearGradient id="linear-gradient-3" x1="9.39" y1="148.3" x2="374.41" y2="148.3" xlink:href="#linear-gradient"/>
    <linearGradient id="linear-gradient-4" x1="18.78" y1="114.95" x2="392.3" y2="114.95" xlink:href="#linear-gradient"/>
  </defs>
  <g>
    <path class="cls-4" d="M.06,174.21l-.06,13.44,365.35,1.59c-5.19-5.13-11.27-9.64-18.24-13.52L.06,174.21Z"/>
    <path class="cls-3" d="M399.13,211.87l-380.71-1.65-.04,8.23,383.61,1.67c-.81-2.87-1.78-5.61-2.87-8.25Z"/>
    <path class="cls-2" d="M9.47,138.21l-.08,18.64,350.03,1.52c5.29-4.62,9.75-9.82,13.34-15.64.58-.95,1.11-1.95,1.65-2.93l-364.94-1.59Z"/>
    <path class="cls-5" d="M392.3,96.9c-.92-30.02-13.03-53.28-36.39-69.74C331.46,9.92,296.7,1.21,251.66,1.01L19.33,0l-.41,95.27,373.39,1.62Z"/>
    <path class="cls-1" d="M132.73,102.71l-.1,23.85-113.85-.5.1-23.85,113.85.49ZM261.64,103.27c1.59.46,3.09,1,4.38,1.71,3.69,2.03,5.53,5.66,5.5,10.9-.02,4.94-1.88,8.32-5.59,10.16-.85.42-1.78.77-2.75,1.1l125.51.55c2.17-7.15,3.37-15.1,3.61-23.84l-130.66-.57Z"/>
  </g>
  <path class="cls-5" d="M405.59,247.9l-387.34-1.69-.07,15.31h308.78v4.63H18.17l-.35,80.95,246.22,1.07c45.04.2,79.87-7.67,104.47-23.61,24.6-15.93,36.97-41.03,37.12-75.28,0-.47-.03-.92-.03-1.39Z"/>
</svg>
