<?xml version="1.0" encoding="UTF-8"?>
<svg id="Layer_2" data-name="Layer 2" xmlns="http://www.w3.org/2000/svg" xmlns:xlink="http://www.w3.org/1999/xlink" viewBox="0 0 907.72 230">
  <defs>
    <style>
      .cls-1 {
        fill: url(#linear-gradient-2);
      }

      .cls-2 {
        fill: url(#linear-gradient);
      }

      .cls-3 {
        fill: #fff;
      }
    </style>
    <linearGradient id="linear-gradient" x1="11.6" y1="49.57" x2="905.83" y2="49.57" gradientUnits="userSpaceOnUse">
      <stop offset=".13" stop-color="#ff00c1"/>
      <stop offset=".39" stop-color="#9600ff"/>
      <stop offset=".62" stop-color="#4900ff"/>
      <stop offset=".89" stop-color="#00fff9"/>
    </linearGradient>
    <linearGradient id="linear-gradient-2" x1="0" y1="62.27" x2="893.43" y2="62.27" xlink:href="#linear-gradient"/>
  </defs>
  <g id="Layer_1-2" data-name="Layer 1">
    <g>
      <g>
        <path class="cls-3" d="M901.66,42.1c-.42-6.51-1.62-12.15-3.62-16.9-2.53-6-6.27-10.87-11.2-14.6-4.93-3.73-10.93-6.43-18-8.1-7.07-1.67-15.2-2.5-24.4-2.5h-404.87c-9.2,0-17.33.83-24.4,2.5-7.07,1.67-13.07,4.37-18,8.1-4.93,3.73-8.67,8.6-11.2,14.6-2.01,4.75-3.21,10.39-3.62,16.9h519.32Z"/>
        <path class="cls-2" d="M190.76,45.1h49.2v8.95h-49.2v-8.95ZM559.56,54.05h49.2v-8.95h-49.2v8.95ZM620.36,45.1v8.95h49.2v-8.95h-49.2ZM120.8,49.6c0,2.13-.8,3.6-2.4,4.4-.04.02-.08.03-.12.05h53.3c.77-2.72,1.23-5.7,1.37-8.95h-54.28c1.4.9,2.13,2.38,2.13,4.5ZM437.21,45.1h-51c-.02.76-.04,1.52-.04,2.3,0,2.32.09,4.53.27,6.65h51.36c-.1-.05-.23-.09-.33-.15-1.54-.87-2.3-2.3-2.3-4.3,0-2.12.7-3.6,2.04-4.5ZM251.56,54.05h49.2v-.85l.72.85h58.58l-7.6-8.95h-100.9v8.95ZM856.83,49.6c0,2-.77,3.43-2.3,4.3-.1.06-.22.1-.33.15h51.36c.18-2.12.27-4.33.27-6.65,0-.78-.02-1.54-.04-2.3h-51c1.35.9,2.04,2.38,2.04,4.5ZM11.6,54.05h49.2v-8.95H11.6v8.95Z"/>
        <path class="cls-1" d="M521.59,66h-144.53c-.72-2.31-1.29-4.79-1.7-7.45h130.99c5.76,1.68,10.79,4.07,15,7.25.08.06.15.14.23.2ZM772.76,58.55v7.45h118.97c.73-2.31,1.29-4.79,1.7-7.45h-120.67ZM158.3,58.55H0v7.45h153.14c1.47-1.54,2.76-3.2,3.86-5,.48-.78.9-1.61,1.3-2.45ZM239.96,58.55v7.45h49.2v-7.45h-49.2ZM352.29,58.55h-58.58l6.34,7.45h58.56l-6.33-7.45ZM597.16,58.55h-49.2v7.45h49.2v-7.45ZM228.36,58.55h-49.2v7.45h49.2v-7.45ZM761.16,58.55h-152.4v7.45h152.4v-7.45Z"/>
        <rect class="cls-3" x="186.76" width="49.2" height="42.1"/>
        <path class="cls-3" d="M168.98,42.1c-.23-13.42-5.51-23.76-15.88-31C142.5,3.7,127.47,0,108,0H7.6v42.1h161.38Z"/>
        <polygon class="cls-3" points="345.92 42.1 310.16 0 247.56 0 247.56 42.1 345.92 42.1"/>
      </g>
      <path class="cls-3" d="M169.1,85.3c-1.37-1.93-2.98-3.69-4.79-5.3H36.2v-2h125.66c-2.89-2.13-6.24-3.93-10.06-5.4.37-.19.71-.4,1.07-.6H7.6v78h106.4c19.46,0,34.5-3.47,45.1-10.4,10.6-6.93,15.9-17.8,15.9-32.6,0-8.93-1.97-16.17-5.9-21.7ZM120.4,105.1c-1.6.87-3.73,1.3-6.4,1.3h-57.2v-11.6h57.2c2.67,0,4.8.4,6.4,1.2,1.6.8,2.4,2.27,2.4,4.4,0,2.27-.8,3.83-2.4,4.7Z"/>
      <polygon class="cls-3" points="326.84 106.4 235.96 106.4 235.96 80 203.76 80 203.76 78 235.96 78 235.96 72 186.76 72 186.76 150 363.86 150 326.84 106.4"/>
      <polygon class="cls-3" points="264.56 80 264.56 78 296.76 78 296.76 72 247.56 72 247.56 94.8 296.76 94.8 296.76 80 264.56 80"/>
      <polygon class="cls-3" points="572.56 80 572.56 78 604.76 78 604.76 72 555.56 72 555.56 150 604.76 150 604.76 80 572.56 80"/>
      <polygon class="cls-3" points="768.76 94.8 768.76 80 644.96 80 644.96 78 768.76 78 768.76 72 616.36 72 616.36 150 768.76 150 768.76 106.4 665.56 106.4 665.56 94.8 768.76 94.8"/>
      <path class="cls-3" d="M858.34,94.06c3.72-.41,7.23-.99,10.5-1.76,7.07-1.67,13.07-4.37,18-8.1,1.66-1.25,3.13-2.68,4.5-4.2h-58.24v-2h59.94c1.43-1.85,2.72-3.83,3.81-6h-116.48v22.8h20.01l46.79,55.2h58.6l-47.42-55.94Z"/>
      <path class="cls-3" d="M539.98,80h-91.5l-2-2h92.57c-1.1-2.16-2.37-4.16-3.8-6h-148.09c2.47,4.89,5.77,8.99,10.01,12.2,4.93,3.73,10.93,6.43,18,8.1,7.07,1.67,15.2,2.5,24.4,2.5h47c2.53,0,4.56.43,6.1,1.3,1.53.87,2.3,2.3,2.3,4.3,0,2.27-.77,3.83-2.3,4.7-1.54.87-3.57,1.3-6.1,1.3h-86.03l-22.42-26.4h-49.94l-2-2h50.24l-5.1-6h-58.55l16,18.8h-.07l33.63,39.6h.04l16.6,19.6h107.6c9.2,0,17.33-.83,24.4-2.5,7.06-1.67,13.06-4.37,18-8.1,4.93-3.73,8.66-8.6,11.2-14.6,2.53-6,3.8-13.4,3.8-22.2s-1.27-16.2-3.8-22.2c-.06-.14-.13-.26-.18-.4Z"/>
    </g>
    <g>
      <path class="cls-3" d="M153.33,215.38v-54.38h-22.63l-31.65,37.26v-37.26h-22.63l-46.18,54.38v-54.38H7.6v69h37.17l31.65-37.26v37.26h22.63l31.65-37.26v37.26h37.17l7.64-9.02h30.18v9.02h22.63v-69h-28.8l-46.18,54.38ZM205.67,202.77h-14.72l14.72-17.3v17.3Z"/>
      <path class="cls-3" d="M254.62,162.43c-4.05.95-7.45,2.48-10.21,4.6-2.76,2.12-4.86,4.89-6.3,8.33-1.44,3.44-2.16,7.64-2.16,12.6v15.09c0,4.97.72,9.17,2.16,12.6,1.44,3.44,3.54,6.21,6.3,8.33,2.76,2.12,6.16,3.65,10.21,4.6,4.05.95,8.65,1.43,13.8,1.43h6.53c4.6,0,8.48-.47,11.64-1.43,3.16-.95,5.54-2.53,7.13-4.74v6.16h22.63v-34.5h-22.63v7.91c0,2.33-.89,4-2.67,5.01-1.78,1.01-4.14,1.52-7.08,1.52h-15.55c-3.07,0-5.47-.52-7.22-1.56-1.75-1.04-2.62-2.82-2.62-5.34v-15.09c0-2.51.87-4.29,2.62-5.34,1.75-1.04,4.15-1.56,7.22-1.56h48.02v-20.06h-48.02c-5.15,0-9.75.48-13.8,1.43Z"/>
      <polygon class="cls-3" points="324.44 230 394.55 230 394.55 209.94 347.08 209.94 347.08 204.61 394.55 204.61 394.55 186.39 347.08 186.39 347.08 181.06 394.55 181.06 394.55 161 324.44 161 324.44 230"/>
      <polygon class="cls-3" points="550.21 198.26 518.56 161 495.93 161 495.93 198.26 464.28 161 437.33 161 495.93 230 518.56 230 518.56 192.74 550.21 230 572.84 230 572.84 161 550.21 161 550.21 198.26"/>
      <path class="cls-3" d="M656.65,167.03c-2.76-2.12-6.16-3.65-10.21-4.6-4.05-.95-8.65-1.43-13.8-1.43h-19.69c-5.15,0-9.75.48-13.8,1.43-4.05.95-7.45,2.48-10.21,4.6-2.76,2.12-4.86,4.89-6.3,8.33-1.44,3.44-2.16,7.64-2.16,12.6v15.09c0,4.97.72,9.17,2.16,12.6,1.44,3.44,3.54,6.21,6.3,8.33,2.76,2.12,6.16,3.65,10.21,4.6,4.05.95,8.65,1.43,13.8,1.43h19.69c5.15,0,9.75-.47,13.8-1.43,4.05-.95,7.45-2.48,10.21-4.6,2.76-2.12,4.86-4.89,6.3-8.33,1.44-3.43,2.16-7.64,2.16-12.6v-15.09c0-4.97-.72-9.17-2.16-12.6-1.44-3.43-3.54-6.21-6.3-8.33ZM642.49,203.04c0,2.52-.87,4.29-2.62,5.34-1.75,1.04-4.16,1.56-7.22,1.56h-19.69c-3.07,0-5.47-.52-7.22-1.56-1.75-1.04-2.62-2.82-2.62-5.34v-15.09c0-2.51.87-4.29,2.62-5.34,1.75-1.04,4.15-1.56,7.22-1.56h19.69c3.07,0,5.47.52,7.22,1.56,1.75,1.04,2.62,2.82,2.62,5.34v15.09Z"/>
      <path class="cls-3" d="M747.87,203.32c2.36-3.86,3.54-8.98,3.54-15.36,0-4.97-.72-9.17-2.16-12.6-1.44-3.43-3.54-6.21-6.3-8.33-2.76-2.12-6.16-3.65-10.21-4.6-4.05-.95-8.65-1.43-13.8-1.43h-46.18v69h22.63v-15.09h17.94l12.79,15.09h26.96l-15.36-18.12c4.42-1.84,7.8-4.69,10.17-8.56ZM726.16,193.29c-1.75,1.04-4.16,1.56-7.22,1.56h-23.55v-13.8h23.55c3.07,0,5.47.52,7.22,1.56,1.75,1.04,2.62,2.82,2.62,5.34s-.87,4.29-2.62,5.34Z"/>
      <path class="cls-3" d="M905.97,197.98c-1.17-2.76-2.88-5-5.15-6.72-2.27-1.72-5.03-2.96-8.28-3.73-3.25-.77-6.99-1.15-11.22-1.15h-21.62c-1.17,0-2.1-.2-2.81-.6-.71-.4-1.06-1.06-1.06-1.98,0-1.04.35-1.76,1.06-2.16.7-.4,1.64-.6,2.81-.6h45.82v-20.06h-45.82c-4.23,0-7.97.38-11.22,1.15-3.25.77-6.01,2.01-8.28,3.73-2.27,1.72-3.99,3.96-5.15,6.72-1.17,2.76-1.75,6.16-1.75,10.21s.58,7.45,1.75,10.21c1.17,2.76,2.88,5,5.15,6.72,2.27,1.72,5.03,2.96,8.28,3.73,3.25.77,6.99,1.15,11.22,1.15h21.62c1.16,0,2.1.2,2.81.6.7.4,1.06,1.06,1.06,1.98,0,1.04-.35,1.76-1.06,2.16-.71.4-1.64.6-2.81.6h-45.82v16.7l-28.24-33.26,27.6-32.38h-26.96l-26.68,31.37v-31.37h-22.63v69h22.63v-35.42l30.18,35.42h69.92c4.23,0,7.97-.38,11.22-1.15,3.25-.77,6.01-2.01,8.28-3.73,2.27-1.72,3.99-3.96,5.15-6.72,1.16-2.76,1.75-6.16,1.75-10.21s-.58-7.45-1.75-10.21Z"/>
    </g>
  </g>
</svg>